<svg width="600" height="600" viewBox="0 0 600 600" fill="none" xmlns="http://www.w3.org/2000/svg"> 
<g id="BackCircle">
<mask id="path-3-inside-1_1_2" fill="white">
<path d="M0 300C0 134.315 134.315 0 300 0C411.042 0 507.994 60.3298 559.865 150C585.391 194.126 600 245.357 600 300C600 354.643 585.391 405.874 559.865 450C507.994 539.67 411.042 600 300 600C188.958 600 92.0061 539.67 40.1347 450C14.6091 405.874 0 354.643 0 300Z"/>
</mask>
<path d="M0 300C0 134.315 134.315 0 300 0C411.042 0 507.994 60.3298 559.865 150C585.391 194.126 600 245.357 600 300C600 354.643 585.391 405.874 559.865 450C507.994 539.67 411.042 600 300 600C188.958 600 92.0061 539.67 40.1347 450C14.6091 405.874 0 354.643 0 300Z" fill="#D9D9D9"/>
<path d="M300.5 300V150H299.5V300H300.5ZM300.5 150V0H299.5V150H300.5ZM560.115 449.567L300.25 299.567L299.75 300.433L559.615 450.433L560.115 449.567ZM40.3846 450.433L300.25 300.433L299.75 299.567L39.8847 449.567L40.3846 450.433ZM559.865 150L560.731 149.499L559.865 150ZM559.865 450L560.731 450.501L559.865 450ZM40.1347 450L39.2691 450.501L40.1347 450ZM1 300C1 134.867 134.867 1 300 1V-1C133.762 -1 -1 133.762 -1 300H1ZM300 1C410.671 1 507.3 61.1268 559 150.501L560.731 149.499C508.688 59.5328 411.414 -1 300 -1V1ZM559 150.501C584.44 194.479 599 245.537 599 300H601C601 245.176 586.342 193.773 560.731 149.499L559 150.501ZM599 300C599 354.463 584.44 405.521 559 449.499L560.731 450.501C586.342 406.227 601 354.824 601 300H599ZM559 449.499C507.3 538.873 410.671 599 300 599V601C411.414 601 508.688 540.467 560.731 450.501L559 449.499ZM300 599C189.329 599 92.7003 538.873 41.0003 449.499L39.2691 450.501C91.3119 540.467 188.586 601 300 601V599ZM41.0003 449.499C15.5604 405.521 1 354.463 1 300H-1C-1 354.824 13.6579 406.227 39.2691 450.501L41.0003 449.499Z" fill="black" mask="url(#path-3-inside-1_1_2)"/>
</g>
</svg>