<svg width="600" height="600" viewBox="0 0 600 600" fill="none" xmlns="http://www.w3.org/2000/svg"> 

<mask id="path-8-inside-2_1_2" fill="white">
<path d="M300 150V300L559.865 450C585.391 405.874 600 354.643 600 300C600 245.357 585.391 194.126 559.865 150C507.994 60.3298 411.042 0 300 0V150Z"/>
</mask>
<path d="M300 150V300L559.865 450C585.391 405.874 600 354.643 600 300C600 245.357 585.391 194.126 559.865 150C507.994 60.3298 411.042 0 300 0V150Z" fill="#FE0707" fill-opacity="0.3" shape-rendering="crispEdges"/>
<path d="M300 150V300L559.865 450C585.391 405.874 600 354.643 600 300C600 245.357 585.391 194.126 559.865 150C507.994 60.3298 411.042 0 300 0V150Z" stroke="black" stroke-width="10" shape-rendering="crispEdges" mask="url(#path-8-inside-2_1_2)"/>

</svg>