<svg width="600" height="600" viewBox="0 0 600 600" fill="none" xmlns="http://www.w3.org/2000/svg"> 
<g id="Vector">
<path d="M484.438 239.356C478.997 239.348 473.784 237.862 469.938 235.221C466.092 232.58 463.927 229 463.916 225.265C463.916 222.984 466.609 221.136 469.929 221.136C473.249 221.136 475.94 222.984 475.94 225.265C475.94 227.354 477.565 229.285 480.199 230.33C482.835 231.374 486.082 231.374 488.716 230.33C491.352 229.285 492.974 227.354 492.974 225.265C492.974 222.984 495.667 221.136 498.987 221.136C502.307 221.136 504.998 222.984 504.998 225.265C504.989 229.005 502.818 232.589 498.962 235.23C495.107 237.871 489.885 239.356 484.44 239.356H484.438Z" fill="black"/>
<path d="M374.004 230.304L355.126 168.382C354.958 167.828 354.958 167.257 355.126 166.703C354.921 162.017 358.12 157.569 363.659 154.832C369.198 152.094 376.358 151.425 382.762 153.046C389.167 154.667 393.979 158.367 395.606 162.918L411.458 201.846L425.785 161.831C426.938 156.987 431.675 152.903 438.291 151.047C444.907 149.192 452.454 149.83 458.214 152.736C463.976 155.641 467.122 160.394 466.526 165.285C466.503 165.432 466.471 165.579 466.425 165.725L457.769 191.87L446.024 190.054L454.602 164.183C454.787 162.153 453.422 160.2 450.995 159.031C448.569 157.861 445.431 157.642 442.713 158.452C439.993 159.261 438.083 160.984 437.669 163.001C437.637 163.173 437.591 163.342 437.527 163.509L417.668 218.95C417.014 220.772 414.651 222.061 411.917 222.087C409.185 222.119 406.763 220.881 406.025 219.074L383.98 164.914L383.983 164.913C383.438 163.4 382.041 162.097 380.098 161.289C378.157 160.482 375.828 160.236 373.622 160.605C371.428 160.979 369.544 161.937 368.377 163.265C367.213 164.595 366.864 166.188 367.409 167.693C367.55 168.075 367.612 168.469 367.589 168.863L385.784 228.582L374.004 230.304Z" fill="black"/>
<path d="M455.419 239.356C453.394 239.259 451.382 239.043 449.408 238.708L448.766 238.639L451.069 230.535L451.771 230.632C453.776 230.907 455.039 231.071 455.558 231.114H455.56C457.791 231.087 459.919 230.463 461.484 229.371C463.052 228.28 463.931 226.811 463.936 225.278V200.345C463.936 198.796 463.043 197.309 461.45 196.214C459.855 195.118 457.695 194.5 455.439 194.497C454.765 194.487 454.09 194.537 453.436 194.648C451.554 194.941 449.877 195.665 448.674 196.699C447.474 197.735 446.82 199.021 446.822 200.345V226.09H434.799V200.345C434.767 197.164 436.307 194.073 439.169 191.573C442.03 189.072 446.043 187.314 450.55 186.585C452.117 186.316 453.726 186.183 455.339 186.186C460.783 186.192 465.998 187.681 469.844 190.326C473.692 192.97 475.855 196.553 475.859 200.29V225.265C475.85 228.991 473.694 232.561 469.867 235.201C466.037 237.84 460.844 239.334 455.419 239.356Z" fill="black"/>
<path d="M430.734 300H426.364C383.16 300 356.428 276.222 356.428 254.191L356.43 252.539C356.507 242.052 363.908 232.225 376.328 226.12C386.709 221.038 399.192 218.385 411.938 218.552H413.08C417.088 218.552 430.955 218.951 440.734 221.482L441.417 221.703L442.057 221.938L443.34 222.322C451.577 224.937 455.785 229.023 455.924 234.514C456.006 238.233 453.946 241.823 450.194 244.505C446.441 247.187 441.299 248.745 435.885 248.839L420.193 249.679L405.383 259.312L405.385 259.31C404.285 260.219 402.672 260.761 400.951 260.798C399.233 260.836 397.572 260.367 396.39 259.508C395.207 258.649 394.619 257.483 394.772 256.306C394.925 255.128 395.804 254.053 397.19 253.351C402.64 249.837 408.078 246.31 413.501 242.77C414.504 242.113 415.807 241.714 417.188 241.642L435.224 240.678H435.584C437.845 240.653 439.996 240.011 441.565 238.897C443.138 237.782 443.999 236.285 443.962 234.734C443.962 232.45 442.459 231.198 438.412 229.918L437.209 229.56L436.746 229.325L436.225 229.133H436.227C428.704 227.586 420.893 226.802 413.041 226.808H411.938C401.769 226.631 391.79 228.7 383.462 232.711C374.129 237.267 368.547 244.622 368.454 252.484V254.122C368.454 276.593 398.393 291.675 426.368 291.675H429.374C449.914 291.867 469.452 287.107 481.476 278.947C489.011 273.856 492.978 267.939 492.978 261.775V209.425C492.978 207.337 491.355 205.406 488.719 204.361C486.085 203.317 482.838 203.317 480.202 204.361C477.568 205.406 475.943 207.336 475.943 209.425C475.943 211.706 473.252 213.554 469.933 213.554C466.613 213.554 463.919 211.707 463.919 209.425C463.919 204.387 467.836 199.731 474.191 197.211C480.546 194.692 488.376 194.692 494.731 197.211C501.086 199.731 505 204.387 505 209.425V261.839C505 270.233 499.789 278.214 489.91 284.888C475.883 294.382 453.8 299.997 430.735 299.997L430.734 300Z" fill="black"/>
</g>
<g id="Vector_2">
<path d="M191.029 223.621C188.299 223.621 186.084 221.8 186.084 219.554V164.144C186.084 161.996 184.692 160.011 182.43 158.938C180.169 157.864 177.383 157.864 175.121 158.938C172.86 160.011 171.467 161.996 171.467 164.144V217.29C171.467 219.535 169.254 221.357 166.522 221.357C163.792 221.357 161.579 219.535 161.579 217.29V164.144C161.579 159.091 164.856 154.421 170.178 151.896C175.498 149.368 182.054 149.368 187.373 151.896C192.695 154.421 195.972 159.091 195.972 164.144V219.554C195.972 221.8 193.759 223.621 191.029 223.621Z" fill="black"/>
<path d="M215.57 223.621C212.838 223.621 210.625 221.8 210.625 219.554V176.982C210.625 174.834 209.232 172.848 206.971 171.776C204.709 170.702 201.923 170.702 199.662 171.776C197.4 172.849 196.008 174.834 196.008 176.982C196.008 179.227 193.795 181.047 191.063 181.047C188.333 181.047 186.12 179.227 186.12 176.982C186.12 171.928 189.397 167.259 194.718 164.733C200.038 162.206 206.594 162.206 211.914 164.733C217.235 167.259 220.513 171.928 220.513 176.982V219.554C220.513 221.8 218.3 223.621 215.57 223.621Z" fill="black"/>
<path d="M182.457 299.996H181.305C170.926 299.961 160.673 298.113 151.23 294.575C138.447 289.557 127.607 281.721 119.918 271.939L99.8291 247.135C97.7193 245.007 92.1169 239.003 96.8461 231.507C98.941 228.18 102.555 225.673 106.895 224.532C111.234 223.39 115.947 223.711 120 225.422C120.395 225.588 120.76 225.799 121.087 226.046L137.122 238.245V176.98C137.122 171.927 140.399 167.257 145.721 164.732C151.041 162.204 157.597 162.204 162.918 164.732C168.238 167.257 171.515 171.927 171.515 176.98C171.515 179.226 169.302 181.046 166.572 181.046C163.842 181.046 161.627 179.226 161.627 176.98C161.627 174.832 160.235 172.847 157.973 171.774C155.712 170.7 152.926 170.7 150.664 171.774C148.404 172.847 147.01 174.832 147.01 176.98V247.461C146.988 249.056 145.833 250.492 144.057 251.135C142.283 251.776 140.216 251.506 138.771 250.443L114.957 232.457C113.263 231.876 111.367 231.839 109.643 232.354C107.918 232.868 106.492 233.896 105.645 235.235C104.243 237.472 104.738 239.221 107.655 242.147L107.936 242.459L128.173 267.346C134.838 275.869 144.244 282.71 155.348 287.107C163.538 290.191 172.429 291.807 181.436 291.85C198.69 292.026 215.186 287.229 225.372 278.961C231.75 273.796 235.112 267.765 235.112 261.531V193.476C235.112 191.33 233.718 189.345 231.456 188.271C229.195 187.197 226.41 187.197 224.149 188.271C221.887 189.345 220.493 191.33 220.493 193.476C220.493 195.722 218.28 197.544 215.55 197.544C212.82 197.544 210.605 195.722 210.605 193.476C210.605 188.423 213.884 183.755 219.204 181.228C224.525 178.702 231.08 178.702 236.401 181.228C241.721 183.755 245 188.423 245 193.476V261.547C245 270.004 240.617 278.028 232.311 284.765C220.527 294.335 201.955 300 182.458 300L182.457 299.996Z" fill="black"/>
</g>
<g id="Vector_3">
<path d="M321.115 435.912C318.423 435.912 316.242 433.95 316.242 431.53V429.089C316.336 427.274 315.601 425.503 314.207 424.189C312.813 422.874 310.881 422.131 308.861 422.131C306.841 422.131 304.909 422.874 303.514 424.189C302.12 425.503 301.385 427.274 301.479 429.089C301.479 431.51 299.298 433.471 296.608 433.471C293.917 433.471 291.734 431.51 291.734 429.089C291.592 424.922 293.333 420.878 296.559 417.885C299.787 414.892 304.224 413.201 308.861 413.201C313.495 413.201 317.932 414.892 321.16 417.885C324.388 420.878 326.128 424.922 325.985 429.089V431.53C325.985 433.95 323.805 435.912 321.115 435.912Z" fill="black"/>
<path d="M308.791 465.406C304.243 465.395 299.887 463.755 296.686 460.848C293.482 457.943 291.696 454.011 291.722 449.92V423.477C291.722 421.055 293.905 419.093 296.595 419.093C299.286 419.093 301.467 421.055 301.467 423.477V449.92C301.273 451.77 301.956 453.609 303.346 454.985C304.739 456.36 306.709 457.144 308.775 457.144C310.843 457.144 312.813 456.36 314.203 454.985C315.596 453.609 316.277 451.77 316.083 449.92C316.083 447.498 318.264 445.536 320.956 445.536C323.647 445.536 325.828 447.498 325.828 449.92C325.844 454.003 324.062 457.926 320.868 460.83C317.675 463.734 313.332 465.378 308.791 465.406Z" fill="black"/>
<path d="M312.426 525H311.112C300.727 524.924 290.48 522.862 281.05 518.952C268.298 513.427 257.498 504.831 249.853 494.115L229.78 467.057C227.701 464.735 222.132 458.292 226.84 450.022C228.936 446.401 232.539 443.674 236.863 442.436C241.189 441.199 245.881 441.552 249.918 443.42C250.317 443.592 250.69 443.813 251.022 444.077L267.149 457.532V390.327C267.174 386.249 268.996 382.347 272.213 379.474C275.429 376.602 279.782 374.994 284.315 375C288.865 374.993 293.23 376.616 296.445 379.511C299.661 382.407 301.461 386.335 301.449 390.428V429.042C301.449 431.463 299.266 433.425 296.575 433.425C293.885 433.425 291.704 431.463 291.704 429.042V390.413C291.712 388.654 290.942 386.963 289.56 385.716C288.179 384.468 286.303 383.767 284.346 383.767C282.402 383.777 280.538 384.48 279.165 385.719C277.791 386.958 277.015 388.634 277.006 390.385V401.415L276.86 467.566C276.838 469.285 275.699 470.833 273.95 471.526C272.201 472.217 270.165 471.926 268.739 470.78L244.916 450.97C243.202 450.319 241.28 450.274 239.529 450.842C237.781 451.412 236.335 452.553 235.48 454.038C234.067 456.506 234.57 458.422 237.495 461.694L237.755 462.015L257.989 489.363C264.648 498.678 274.039 506.156 285.127 510.97C293.33 514.369 302.243 516.156 311.274 516.216C328.601 516.478 345.085 511.205 355.317 502.161C361.715 496.507 365.061 489.889 365.061 483.052L365.24 397.54C365.334 395.726 364.599 393.955 363.205 392.64C361.811 391.326 359.877 390.581 357.858 390.581C355.839 390.581 353.906 391.326 352.512 392.64C351.118 393.955 350.383 395.726 350.477 397.54V450.21C350.42 455.723 347.096 460.791 341.758 463.504C336.42 466.214 329.879 466.16 324.6 463.357C319.321 460.555 316.104 455.43 316.161 449.918V434.474C316.178 430.388 318.015 426.478 321.261 423.621C324.511 420.787 328.867 419.213 333.393 419.237C335.935 419.219 338.45 419.717 340.749 420.699V397.455C340.952 392.063 344.274 387.16 349.507 384.527C354.74 381.892 361.123 381.912 366.336 384.577C371.551 387.241 374.835 392.165 375 397.556L374.821 483.081C374.821 492.314 370.404 501.081 362.104 508.428C350.379 518.846 331.866 524.997 312.427 524.997L312.426 525ZM333.36 428.006C331.406 428.003 329.53 428.697 328.148 429.94C326.765 431.181 325.987 432.867 325.987 434.624V450.068C326.107 452.365 327.54 454.445 329.774 455.564C332.009 456.682 334.728 456.682 336.963 455.564C339.197 454.445 340.63 452.365 340.75 450.068V434.435C340.682 432.714 339.877 431.083 338.503 429.885C337.127 428.686 335.292 428.013 333.377 428.006H333.36Z" fill="black"/>
</g>
</svg>